<?xml version="1.0" standalone="no"?><!DOCTYPE svg PUBLIC "-//W3C//DTD SVG 1.1//EN" "http://www.w3.org/Graphics/SVG/1.1/DTD/svg11.dtd"><svg t="1721461896502" class="icon" viewBox="0 0 1024 1024" version="1.1" xmlns="http://www.w3.org/2000/svg" p-id="3181" xmlns:xlink="http://www.w3.org/1999/xlink" width="32" height="32"><path d="M821.364 962h-618.75C123.864 962 62 900.114 62 821.364v-618.75c0-78.75 61.864-140.635 140.614-140.635h618.75c78.75 0 140.636 61.885 140.636 140.635v618.75C962 900.114 900.114 962 821.364 962z m79.265-756.814c0-46.586-35.25-81.815-81.815-81.815H205.186c-46.843-0.214-84.557 34.758-83.165 82.393-0.128 14.4 1.35 613.05 1.35 613.05 0 46.565 35.25 81.815 81.815 81.815h613.628c46.565 0 81.815-35.25 81.815-81.815V205.186z m-173.55 347.657H552.843v174.236c0 16.95-13.736 30.685-30.686 30.685h-0.236a30.686 30.686 0 0 1-30.685-30.685V552.843H296.92a30.686 30.686 0 0 1-30.685-30.686v-0.236c0-16.95 13.735-30.685 30.685-30.685h194.315V296.92c0-16.95 13.735-30.685 30.685-30.685h0.236c16.95 0 30.686 13.735 30.686 30.685v194.315h174.236c16.95 0 30.685 13.735 30.685 30.685v0.236c0 16.95-13.735 30.686-30.685 30.686z" fill="#e6e6e6" p-id="3182"></path></svg>