<?xml version="1.0" standalone="no"?><!DOCTYPE svg PUBLIC "-//W3C//DTD SVG 1.1//EN" "http://www.w3.org/Graphics/SVG/1.1/DTD/svg11.dtd"><svg t="1711265465888" class="icon" viewBox="0 0 1024 1024" version="1.1" xmlns="http://www.w3.org/2000/svg" p-id="6587" xmlns:xlink="http://www.w3.org/1999/xlink" width="32" height="32"><path d="M771.104 331.584v435.968a30.944 30.944 0 0 1-9.6 22.912c-6.304 6.08-14.944 9.536-24 9.536-18.624-0.32-33.568-14.784-33.568-32.448V331.584L569.632 458.88a33.792 33.792 0 0 1-23.84 9.664c-9.024 0-17.632-3.488-23.872-9.664a31.008 31.008 0 0 1-9.92-22.592c0-8.512 3.584-16.64 9.92-22.592L712 233.568c6.176-6.08 14.656-9.504 23.52-9.536 8.896-0.32 17.568 2.624 24.192 8.256l190.08 180.128A30.4 30.4 0 0 1 960 435.008a30.4 30.4 0 0 1-10.24 22.592 34.56 34.56 0 0 1-23.84 9.408 34.56 34.56 0 0 1-23.84-9.408L771.104 331.584zM88.864 736h398.24c13.76 0 24.896 14.176 24.896 31.68 0 17.504-11.136 31.68-24.896 31.68H88.896C75.136 799.36 64 785.184 64 767.68 64 750.176 75.136 736 88.896 736z m1.792-256h266.688c14.72 0 26.656 14.176 26.656 31.68 0 17.504-11.936 31.68-26.656 31.68H90.656C75.936 543.36 64 529.184 64 511.68 64 494.176 75.936 480 90.656 480z m396.48-256H88.864C75.136 224 64 238.176 64 255.68c0 17.504 11.136 31.68 24.896 31.68h398.208c13.76 0 24.896-14.176 24.896-31.68 0-17.504-11.136-31.68-24.896-31.68z" fill="#e6e6e6" p-id="6588"></path></svg>