<?xml version="1.0" standalone="no"?><!DOCTYPE svg PUBLIC "-//W3C//DTD SVG 1.1//EN" "http://www.w3.org/Graphics/SVG/1.1/DTD/svg11.dtd"><svg t="1720417326600" class="icon" viewBox="0 0 1024 1024" version="1.1" xmlns="http://www.w3.org/2000/svg" p-id="1504" width="32" height="32" xmlns:xlink="http://www.w3.org/1999/xlink"><path d="M96 320a32 32 0 1 1 0-64h832a32 32 0 0 1 0 64H96z m736 0h64v448a160 160 0 0 1-160 160H288a160 160 0 0 1-160-160V320h64v96H128v-96h64v448a96 96 0 0 0 96 96h448a96 96 0 0 0 96-96V320z m-512 112a32 32 0 0 1 64 0v320a32 32 0 0 1-64 0v-320z m320 0a32 32 0 0 1 64 0v320a32 32 0 0 1-64 0v-320zM288 256H224V192a96 96 0 0 1 96-96h384a96 96 0 0 1 96 96v64h-64V224h64v32h-64V192a32 32 0 0 0-32-32H320a32 32 0 0 0-32 32v64z" p-id="1505" fill="#e6e6e6"></path></svg>