<?xml version="1.0" standalone="no"?><!DOCTYPE svg PUBLIC "-//W3C//DTD SVG 1.1//EN" "http://www.w3.org/Graphics/SVG/1.1/DTD/svg11.dtd"><svg t="1720421675737" class="icon" viewBox="0 0 1024 1024" version="1.1" xmlns="http://www.w3.org/2000/svg" p-id="2613" xmlns:xlink="http://www.w3.org/1999/xlink" width="32" height="32"><path d="M512.186242 6.139837c-278.100856 0-504.362043 226.261187-504.362043 504.362043S234.085386 1014.863922 512.186242 1014.863922s504.362043-226.261187 504.362043-504.362043S790.287097 6.139837 512.186242 6.139837zM794.409998 413.799444 466.418872 750.040465c-7.838525 8.023744-18.590404 12.579503-29.816073 12.642948l-0.227174 0c-11.141758 0-21.834284-4.433986-29.715789-12.314467L230.289943 574.038962c-16.420995-16.396435-16.420995-43.013653 0-59.430554 16.416901-16.420995 43.013653-16.420995 59.430554 0l146.32767 146.281621 298.275337-305.866223c16.253172-16.58063 42.891879-16.891715 59.430554-0.655939C810.356179 370.600573 810.646797 397.21779 794.409998 413.799444z" fill="#e6e6e6" p-id="2614"></path></svg>