<?xml version="1.0" standalone="no"?><!DOCTYPE svg PUBLIC "-//W3C//DTD SVG 1.1//EN" "http://www.w3.org/Graphics/SVG/1.1/DTD/svg11.dtd"><svg t="1721732530716" class="icon" viewBox="0 0 1024 1024" version="1.1" xmlns="http://www.w3.org/2000/svg" p-id="3214" xmlns:xlink="http://www.w3.org/1999/xlink" width="32" height="32"><path d="M846 447.8c-17.7 0-32 14.3-32 32v327.3c0 7.1-5.4 12.8-12 12.8H222c-6.6 0-12-5.7-12-12.8V216.8c0-7.1 5.4-12.8 12-12.8h334.4c17.7 0 32-14.3 32-32s-14.3-32-32-32H222c-41.9 0-76 34.5-76 76.8v590.3c0 42.3 34.1 76.8 76 76.8h580c41.9 0 76-34.5 76-76.8V479.8c0-17.7-14.3-32-32-32z" p-id="3215"></path><path d="M407.3 547.9c-4.1 15.4 0.1 31.4 11.1 42.9 8.7 9 20.3 14 32.5 14 3.3 0 6.6-0.4 9.8-1.1L571.9 579l275.2-263.8c18.9-18 29.6-42.3 30.2-68.4 0.6-26.2-9.1-51-27.1-69.8-18-18.9-42.3-29.6-68.4-30.2-26.1-0.6-51 9.1-69.9 27.2L436.6 437.9l-29.3 110z m86.5-76.2l262.3-251.5c6.5-6.3 15.1-9.6 24.2-9.4 9 0.2 17.4 3.9 23.6 10.4 6.3 6.5 9.6 15.1 9.4 24.2-0.2 9-3.9 17.4-10.4 23.6L540.5 520.4l-63.4 14.1 16.7-62.8z" p-id="3216"></path></svg>