<?xml version="1.0" standalone="no"?><!DOCTYPE svg PUBLIC "-//W3C//DTD SVG 1.1//EN" "http://www.w3.org/Graphics/SVG/1.1/DTD/svg11.dtd"><svg t="1706511847932" class="icon" viewBox="0 0 1429 1024" version="1.1" xmlns="http://www.w3.org/2000/svg" p-id="6401" xmlns:xlink="http://www.w3.org/1999/xlink" width="44.65625" height="32"><path d="M481.90262395 481.96366165l66.524596-72.358097a37.596476 37.596476 0 0 1 60.37611 6.866649l48.45712 85.19684 65.390654-140.772596a37.684672 37.684672 0 0 1 33.917465-21.784286 38.188646 38.188646 0 0 1 34.156852 21.418904l74.63858 155.904422 23.522997-49.855648a37.609075 37.609075 0 0 1 34.018259-21.570097h280.260058c7.383222-40.103748 6.980043-82.412383-3.099441-127.770061C1168.12650795 171.75493565 1054.22833695 80.72459465 892.32662195 113.38212265c-50.825799 10.268475-90.916948 38.188646-126.63612 74.676379-2.998647-1.259936-4.233383-1.549721-5.039742-2.267884-2.280483-1.915102-4.49797-3.868002-6.564264-5.984694C707.64527195 131.70158565 650.20481095 109.61491565 584.19678895 106.93125265 505.29962595 103.73101665 438.25845695 129.69828765 388.05002595 191.10754565c-66.020622 80.774467-83.886507 191.71179-54.101631 290.856116z m0 0" fill="#764C46" p-id="6402"></path><path d="M946.81883295 520.25310265l-47.121589 99.86249a37.684672 37.684672 0 0 1-33.904865 21.570096h-0.100794a37.672072 37.672072 0 0 1-34.01826-21.418904l-74.336196-155.387848-62.505401 134.586313a37.634274 37.634274 0 0 1-66.776583 2.746659l-59.040579-103.780889-42.837808 46.542018a37.72247 37.72247 0 0 1-27.718581 12.183577H367.53827595c3.930999 6.45087 8.050988 12.800945 12.49856 18.987228 41.955853 58.788592 92.680857 109.148215 148.672393 154.102714 57.591653 46.290031 116.481039 91.080739 175.723207 135.254079 37.155499 27.718582 77.511234 29.671482 112.247657 4.548367 101.046829-73.240052 202.761424-145.799739 287.2653-239.097965 31.636981-34.938012 57.226272-71.690331 75.243349-110.748332z m0 0" fill="#764C46" p-id="6403"></path><path d="M1065.84494195 131.39920065C1017.74060395 107.61161865 959.16620095 100.01420665 892.32662195 113.48291765c-50.825799 10.281074-90.916948 38.188646-126.63612 74.676379-2.998647-1.259936-4.233383-1.549721-5.039742-2.267884a86.935551 86.935551 0 0 1-6.602063-5.984694C707.60747395 131.80238065 650.16701295 109.71571065 584.15899095 107.03204765 505.28702695 103.83181165 438.24585795 129.78648365 388.03742695 191.24613865c-66.008022 80.635874-83.873908 191.573197-54.089032 290.717523H481.90262395l66.524596-72.358097a37.596476 37.596476 0 0 1 60.37611 6.866649l48.45712 85.19684 65.441052-140.772596a37.684672 37.684672 0 0 1 33.867067-21.784286 38.188646 38.188646 0 0 1 34.156852 21.418904l74.63858 155.904422 23.522997-49.855648a37.609075 37.609075 0 0 1 34.018259-21.570097H1052.52742395a601.531019 601.531019 0 0 0 27.844575-181.607106 605.21003 605.21003 0 0 0-14.527057-132.003446z m0 0" fill="#764C46" p-id="6404"></path><path d="M1023.00713395 520.25310265H946.81883295l-47.121589 99.86249a37.684672 37.684672 0 0 1-33.904865 21.570096h-0.100794a37.672072 37.672072 0 0 1-34.01826-21.418904l-74.336196-155.387848-62.505401 134.586313a37.634274 37.634274 0 0 1-66.776583 2.746659l-59.040579-103.780889-42.837808 46.542018a37.72247 37.72247 0 0 1-27.718581 12.183577H367.53827595c3.930999 6.45087 8.050988 12.800945 12.49856 18.987228 41.955853 58.788592 92.680857 109.148215 148.672393 154.102714 44.841105 36.021557 90.463371 71.161159 136.40062 105.834584 158.273101-51.657357 287.65588-167.004454 357.947683-315.840637z m0 0" fill="#764C46" p-id="6405"></path><path d="M892.32662195 113.48291765c-50.825799 10.281074-90.916948 38.188646-126.63612 74.676379-2.998647-1.259936-4.233383-1.549721-5.039742-2.267884a86.935551 86.935551 0 0 1-6.602063-5.984694C707.60747395 131.80238065 650.16701295 109.71571065 584.15899095 107.03204765 505.28702695 103.83181165 438.24585795 129.78648365 388.03742695 191.24613865c-66.008022 80.635874-83.873908 191.573197-54.089032 290.717523H481.90262395l66.524596-72.358097a37.596476 37.596476 0 0 1 60.37611 6.866649l48.45712 85.19684 65.441052-140.772596a37.684672 37.684672 0 0 1 33.867067-21.784286 38.188646 38.188646 0 0 1 34.156852 21.418904l16.379162 34.01826a598.973349 598.973349 0 0 0 105.582597-284.506042c-6.702857 1.033147-13.468711 2.116692-20.33536 3.502621zM568.96416895 498.48141665l-42.837808 46.542018a37.697271 37.697271 0 0 1-27.718582 12.183577H367.53827595c3.930999 6.45087 8.050988 12.800945 12.49856 18.987228a683.225238 683.225238 0 0 0 51.858947 63.941728 598.305584 598.305584 0 0 0 179.490415-67.129364z m0 0" fill="#764C46" p-id="6406"></path><path d="M687.14612095 131.18501165c-31.321997-15.018431-65.743436-22.678839-102.961931-24.152964C505.28702695 103.83181165 438.24585795 129.78648365 388.03742695 191.24613865 336.11548395 254.72169065 314.12960895 336.88208565 321.51283095 417.34156865A603.622512 603.622512 0 0 0 687.14612095 131.18501165z m0 0" fill="#764C46" p-id="6407"></path></svg>