<?xml version="1.0" standalone="no"?><!DOCTYPE svg PUBLIC "-//W3C//DTD SVG 1.1//EN" "http://www.w3.org/Graphics/SVG/1.1/DTD/svg11.dtd"><svg t="1719727506180" class="icon" viewBox="0 0 1024 1024" version="1.1" xmlns="http://www.w3.org/2000/svg" p-id="4260" xmlns:xlink="http://www.w3.org/1999/xlink" width="32" height="32"><path d="M861.742545 520.005818c13.963636 0 25.460364 10.146909 27.648 23.458909l0.372364 4.514909v77.730909a183.435636 183.435636 0 0 1-174.033454 183.20291l-9.448728 0.279272H229.981091l90.437818 90.437818a28.439273 28.439273 0 0 1 3.258182 36.305455l-3.258182 3.909818a28.439273 28.439273 0 0 1-36.305454 3.258182l-3.909819-3.258182-136.192-136.192a33.978182 33.978182 0 0 1-3.490909-44.218182l3.490909-4.049454 133.911273-133.911273a28.439273 28.439273 0 0 1 43.52 36.305455l-3.258182 3.909818-87.412363 87.365818-4.049455 4.142545h479.557818a127.441455 127.441455 0 0 0 127.255273-119.714909l0.232727-7.773091v-77.730909c0-15.453091 12.520727-27.973818 27.973818-27.973818z m-122.135272-438.923636l3.956363 3.258182L879.709091 220.532364a33.978182 33.978182 0 0 1 8.192 13.079272l0.651636 2.187637c2.606545 9.774545 0.791273 20.48-5.399272 28.951272l-3.444364 4.049455-133.911273 133.911273a28.439273 28.439273 0 0 1-43.52-36.305455l3.258182-3.909818 87.412364-87.365818 4.049454-4.189091-479.604363 0.046545a127.441455 127.441455 0 0 0-127.208728 119.714909l-0.232727 7.726546v77.730909a28.020364 28.020364 0 0 1-55.621818 4.561455l-0.372364-4.561455V398.429091a183.435636 183.435636 0 0 1 173.986909-183.202909l9.448728-0.232727h476.346181L703.301818 124.555636a28.439273 28.439273 0 0 1-3.304727-36.305454l3.258182-3.909818a28.439273 28.439273 0 0 1 36.305454-3.258182z" fill="#e6e6e6" p-id="4261"></path></svg>