<?xml version="1.0" standalone="no"?><!DOCTYPE svg PUBLIC "-//W3C//DTD SVG 1.1//EN" "http://www.w3.org/Graphics/SVG/1.1/DTD/svg11.dtd"><svg t="1706600176220" class="icon" viewBox="0 0 1024 1024" version="1.1" xmlns="http://www.w3.org/2000/svg" p-id="2368" xmlns:xlink="http://www.w3.org/1999/xlink" width="32" height="32"><path d="M768 0H256C114.688 0 0 114.688 0 256v512c0 141.312 114.688 256 256 256h512c141.312 0 256-114.688 256-256V256C1024 114.688 909.312 0 768 0z m73.728 599.04c-2.048 27.648-8.192 55.296-17.408 81.92-24.576 64.512-68.608 119.808-126.976 156.672-43.008 26.624-90.112 44.032-140.288 49.152-33.792 5.12-68.608 5.12-103.424 0C384 874.496 318.464 839.68 269.312 788.48c-87.04-89.088-123.904-216.064-96.256-337.92 25.6-115.712 105.472-210.944 214.016-256 15.36-6.144 32.768-5.12 47.104 2.048 12.288 9.216 19.456 24.576 17.408 39.936-2.048 15.36-12.288 29.696-26.624 34.816-93.184 35.84-159.744 120.832-173.056 220.16-6.144 46.08-1.024 92.16 15.36 135.168 23.552 63.488 68.608 115.712 126.976 147.456 35.84 18.432 75.776 28.672 115.712 27.648 32.768 0 65.536-6.144 97.28-17.408 53.248-19.456 98.304-57.344 124.928-108.544 7.168-12.288 12.288-24.576 16.384-37.888 11.264-38.912 11.264-79.872 0-118.784-10.24-31.744-28.672-61.44-54.272-82.944-11.264-10.24-22.528-18.432-35.84-25.6-11.264-6.144-23.552-11.264-35.84-13.312 8.192 33.792 17.408 68.608 26.624 102.4l4.096 24.576c2.048 71.68-47.104 134.144-116.736 147.456-34.816 7.168-71.68 0-101.376-19.456-27.648-18.432-49.152-46.08-60.416-78.848-6.144-18.432-9.216-36.864-10.24-56.32-2.048-41.984 9.216-82.944 31.744-117.76 28.672-39.936 70.656-69.632 117.76-81.92l-10.24-39.936c-8.192-28.672-6.144-58.368 6.144-84.992 7.168-15.36 17.408-27.648 30.72-38.912 13.312-12.288 28.672-22.528 45.056-27.648 21.504-6.144 44.032-6.144 65.536-1.024 24.576 6.144 47.104 17.408 66.56 32.768 7.168 5.12 13.312 12.288 17.408 20.48 5.12 13.312 4.096 27.648-4.096 39.936-12.288 19.456-37.888 25.6-58.368 13.312-5.12-3.072-8.192-7.168-12.288-10.24-12.288-9.216-27.648-13.312-41.984-14.336-10.24 1.024-20.48 6.144-26.624 14.336-7.168 7.168-10.24 17.408-8.192 27.648l15.36 59.392c37.888 1.024 74.752 12.288 106.496 31.744s59.392 44.032 81.92 73.728c19.456 25.6 33.792 54.272 41.984 84.992 11.264 33.792 14.336 66.56 12.288 100.352z" fill="#E82202" p-id="2369"></path><path d="M487.424 435.2c-12.288 13.312-20.48 30.72-23.552 49.152-3.072 16.384-3.072 33.792 0 50.176 3.072 18.432 12.288 35.84 26.624 47.104 12.288 9.216 26.624 11.264 40.96 8.192 25.6-5.12 44.032-28.672 46.08-56.32-1.024-7.168-2.048-13.312-4.096-20.48L544.768 399.36c-22.528 6.144-41.984 18.432-57.344 35.84z" fill="#E82202" p-id="2370"></path></svg>