<?xml version="1.0" standalone="no"?><!DOCTYPE svg PUBLIC "-//W3C//DTD SVG 1.1//EN" "http://www.w3.org/Graphics/SVG/1.1/DTD/svg11.dtd"><svg t="1721374874432" class="icon" viewBox="0 0 1024 1024" version="1.1" xmlns="http://www.w3.org/2000/svg" p-id="1491" xmlns:xlink="http://www.w3.org/1999/xlink" width="32" height="32"><path d="M878.813519 539.563395H317.719608c-15.461511 0-28.105271-12.535384-28.105271-28.03302 0-15.497636 12.643759-28.105271 28.105271-28.105271h561.093911c15.461511 0 28.033021 12.643759 28.03302 28.105271-0.036125 15.497636-12.571509 28.033021-28.03302 28.03302z m0-224.444789H317.719608c-15.461511 0-28.105271-12.535384-28.105271-28.033021 0-15.497636 12.643759-28.033021 28.105271-28.03302h561.093911a28.033021 28.033021 0 0 1 28.03302 28.03302c-0.036125 15.497636-12.571509 28.033021-28.03302 28.033021zM149.413109 764.008185c-15.497636 0-28.105271-12.535384-28.10527-28.105271 0-15.461511 12.643759-28.033021 28.10527-28.033021 15.497636 0 28.033021 12.535384 28.033021 28.033021-0.036125 15.569886-12.571509 28.105271-28.033021 28.105271z m0-224.44479c-15.497636 0-28.105271-12.535384-28.10527-28.03302 0-15.497636 12.643759-28.105271 28.10527-28.105271 15.497636 0 28.033021 12.643759 28.033021 28.105271-0.036125 15.497636-12.571509 28.033021-28.033021 28.03302z m0-224.444789c-15.497636 0-28.105271-12.535384-28.10527-28.033021 0-15.497636 12.643759-28.033021 28.10527-28.03302 15.497636 0 28.033021 12.535384 28.033021 28.03302-0.036125 15.497636-12.571509 28.033021-28.033021 28.033021z m168.306499 392.751287h561.093911a28.033021 28.033021 0 0 1 28.03302 28.033021c0 15.569886-12.535384 28.105271-28.03302 28.105271H317.719608c-15.461511 0-28.105271-12.535384-28.105271-28.105271 0-15.461511 12.607634-28.033021 28.105271-28.033021z" fill="#e6e6e6" p-id="1492"></path></svg>