<?xml version="1.0" standalone="no"?><!DOCTYPE svg PUBLIC "-//W3C//DTD SVG 1.1//EN" "http://www.w3.org/Graphics/SVG/1.1/DTD/svg11.dtd"><svg t="1706511531567" class="icon" viewBox="0 0 1024 1024" version="1.1" xmlns="http://www.w3.org/2000/svg" p-id="5312" xmlns:xlink="http://www.w3.org/1999/xlink" width="32" height="32"><path d="M833.39330732 254.76090224a128.56555107 128.56555107 0 0 1 128.56555195 128.56555108V833.43444893a128.56555107 128.56555107 0 0 1-128.56555195 128.56555107H190.56555107a128.56555107 128.56555107 0 0 1-128.56555107-128.56555107V383.32645332a128.56555107 128.56555107 0 0 1 128.56555107-128.56555108h642.82775625z m0 64.28277598H190.56555107a64.28277598 64.28277598 0 0 0-64.28277509 64.2827751V833.43444893a64.28277598 64.28277598 0 0 0 64.28277509 64.28277509h642.82775625a64.28277598 64.28277598 0 0 0 64.28277598-64.28277509V383.32645332a64.28277598 64.28277598 0 0 0-64.28277598-64.2827751z m-546.40359228 129.20837871h128.56555108a32.14138799 32.14138799 0 0 1 32.14138799 32.14138799v0.12856553a32.14138799 32.14138799 0 0 1-32.14138799 32.14138799h-128.56555108a32.14138799 32.14138799 0 0 1-32.14138799-32.14138799V480.52201045a32.14138799 32.14138799 0 0 1 32.14138799-32.14138799z m0 128.82268213h128.56555108a32.14138799 32.14138799 0 0 1 32.14138799 32.14138799v0.06428321a32.14138799 32.14138799 0 0 1-32.14138799 32.14138799h-128.56555108a32.14138799 32.14138799 0 0 1-32.14138799-32.14138799v-0.06428321a32.14138799 32.14138799 0 0 1 32.14138799-32.14138799z m128.56555108 128.75839981a32.14138799 32.14138799 0 0 1 32.14138799 32.14138798v0.06428321a32.14138799 32.14138799 0 0 1-32.14138799 32.14138711h-128.56555108a32.14138799 32.14138799 0 0 1-32.14138799-32.14138711v-0.06428321a32.14138799 32.14138799 0 0 1 32.14138799-32.14138798h128.56555108z m257.13110214-265.23073213c88.71023057 0 160.70693906 71.99670849 160.70693906 160.89978779a160.83550459 160.83550459 0 0 1-160.70693906 160.96407012c-88.71023057 0-160.70693906-72.0609917-160.70693906-160.96407012A160.83550459 160.83550459 0 0 1 672.68636826 440.66668994z m0 64.3470583A96.48844628 96.48844628 0 1 0 769.11053223 601.50219453c0-53.35470352-43.1980251-96.55272862-96.42416397-96.55272949z m40.62671455-431.59455527l3.34270459 4.75692539 96.29559757 167.00665078a32.14138799 32.14138799 0 0 1-52.3261793 36.9625957l-3.3427046-4.69264219v-0.0642832L660.98690352 110.31750547a32.14138799 32.14138799 0 0 1 52.32617929-36.9625957z" fill="#764C46" p-id="5313"></path></svg>