<?xml version="1.0" standalone="no"?><!DOCTYPE svg PUBLIC "-//W3C//DTD SVG 1.1//EN" "http://www.w3.org/Graphics/SVG/1.1/DTD/svg11.dtd"><svg t="1719727581765" class="icon" viewBox="0 0 1024 1024" version="1.1" xmlns="http://www.w3.org/2000/svg" p-id="7190" xmlns:xlink="http://www.w3.org/1999/xlink" width="32" height="32"><path d="M753.564731 337.471035c-45.8697 0-160.259984 113.849978-243.789399 194.548928C383.134027 654.383848 263.508509 773.284865 167.764911 773.284865l-58.892295 0c-24.068162 0-43.581588-19.526729-43.581588-43.581588s19.513426-43.581588 43.581588-43.581588l58.892295 0c60.504002 0 183.002964-121.68134 281.432741-216.784348 119.79641-115.744117 223.254713-219.029482 304.368102-219.029482l56.209186 0-59.641355-57.828057c-17.033955-16.993023-17.060561-42.902112-0.057305-59.927881 17.002232-17.030885 44.596707-17.064654 61.631686-0.065492l134.207631 133.874033c8.192589 8.172123 12.794397 19.238157 12.794397 30.803563 0 11.564383-4.601808 22.604834-12.794397 30.776957L811.706943 461.72599c-8.505721 8.486278-19.646456 12.522198-30.78719 12.522198-11.166317 0-22.333658-4.676509-30.844495-13.199627-17.003256-17.025769-16.975627-45.432749 0.057305-62.425771l59.641355-61.151755L753.564731 337.471035zM811.706943 561.66105c-17.034978-16.999163-44.629453-16.972557-61.631686 0.058328-17.003256 17.024745-16.975627 46.257533 0.057305 63.250556l59.641355 61.150732-56.209186 0c-35.793204 0-95.590102-52.946886-154.87637-108.373243-17.576307-16.435321-45.161572-16.3422-61.594847 1.226944-16.444531 17.568121-15.523555 46.393633 2.053776 62.823837 90.322122 84.458577 151.246703 131.484613 214.417441 131.484613l56.209186 0-59.641355 57.824987c-17.033955 16.993023-17.060561 43.736107-0.057305 60.761875 8.511861 8.523117 19.678178 12.369725 30.844495 12.369725 11.140735 0 22.281469-4.453429 30.78719-12.939707L945.914574 757.311055c8.192589-8.173147 12.794397-19.315928 12.794397-30.881334 0-11.564383-4.601808-22.682605-12.794397-30.855752L811.706943 561.66105zM108.871593 337.471035l58.892295 0c45.932122 0 114.40154 58.455343 168.915108 107.942431 8.352225 7.576559 18.832927 12.140505 29.29214 12.140505 11.852956 0 23.673166-4.394077 32.270984-13.857613 16.182564-17.807574 14.859429-46.823422-2.958378-62.998823-85.247546-77.381391-156.561755-130.388652-227.519854-130.388652l-58.892295 0c-24.068162 0-43.581588 19.526729-43.581588 43.581588S84.804455 337.471035 108.871593 337.471035z" fill="#e6e6e6" p-id="7191"></path></svg>