<?xml version="1.0" standalone="no"?><!DOCTYPE svg PUBLIC "-//W3C//DTD SVG 1.1//EN" "http://www.w3.org/Graphics/SVG/1.1/DTD/svg11.dtd"><svg t="1706511954578" class="icon" viewBox="0 0 1024 1024" version="1.1" xmlns="http://www.w3.org/2000/svg" p-id="9582" xmlns:xlink="http://www.w3.org/1999/xlink" width="32" height="32"><path d="M237.348571 123.611429l-7.094857 8.996571c3.072-10.971429 5.339429-19.602286 6.875429-26.112l6.875428-29.257143c7.021714-21.211429 2.486857-33.865143-18.651428-40.96-15.945143-2.706286-29.988571-0.365714-37.010286 13.750857l-33.792 142.482286c-4.681143 16.822857-6.290286 29.403429 14.848 36.498286l132.461714 33.645714c21.211429 7.021714 36.352-1.901714 42.422858-19.456 5.924571-17.627429-7.021714-34.962286-22.820572-38.180571l-56.100571-14.482286c5.193143-3.730286 4.827429-5.997714 12.214857-11.849143 83.968-65.828571 156.672-101.522286 248.32-101.522286 211.382857 0 396.8 190.317714 396.8 401.700572 0 211.456-185.417143 398.116571-396.8 398.116571-211.382857 0-396.8-186.660571-396.8-398.116571 0-21.138286-13.897143-38.034286-35.108572-38.034286-21.138286 0-34.011429 16.896-34.011428 38.034286 0 253.805714 212.187429 467.821714 465.92 467.821714 253.659429 0 467.675429-214.674286 467.675428-468.406857S790.966857 11.264 526.774857 11.264a437.540571 437.540571 0 0 0-289.426286 112.274286zM470.308571 329.216v222.427429c0 21.211429 14.116571 35.254857 35.254858 35.254857h160.036571c21.211429 0 34.377143-14.116571 34.377143-35.254857s-13.165714-31.012571-34.377143-31.012572H539.062857V329.289143c0-21.138286-11.995429-35.620571-33.206857-35.620572-21.138286 0-35.474286 14.482286-35.474286 35.620572z" fill="#764C46" p-id="9583"></path></svg>