<?xml version="1.0" standalone="no"?><!DOCTYPE svg PUBLIC "-//W3C//DTD SVG 1.1//EN" "http://www.w3.org/Graphics/SVG/1.1/DTD/svg11.dtd"><svg t="1719727542044" class="icon" viewBox="0 0 1024 1024" version="1.1" xmlns="http://www.w3.org/2000/svg" p-id="5321" xmlns:xlink="http://www.w3.org/1999/xlink" width="32" height="32"><path d="M302.36672 276.48h436.26496v-61.44H302.36672q-110.30528 0-188.12928 81.5104Q37.02784 377.36448 37.02784 491.52v163.84q0 114.11456 77.2096 194.9696 77.824 81.5104 188.12928 81.5104h390.9632q110.30528 0 188.08832-81.5104 77.2096-80.85504 77.2096-194.9696v-46.08h-61.44V655.36q0 89.4976-60.2112 152.576-59.5968 62.464-143.64672 62.464H302.36672q-84.04992 0-143.68768-62.464-60.2112-63.0784-60.2112-152.576v-163.84q0-89.4976 60.2112-152.576Q218.3168 276.48 302.36672 276.48z" p-id="5322" fill="#e6e6e6"></path><path d="M719.54432 98.54976l204.8 138.8544-204.8 138.8544v-277.7088z" p-id="5323" fill="#e6e6e6"></path><path d="M473.62048 733.55264v-238.91968l-59.47392 51.2v-56.5248l59.47392-55.21408 53.16608 9.33888v290.11968h-53.16608z" p-id="5324" fill="#e6e6e6"></path></svg>