<?xml version="1.0" standalone="no"?><!DOCTYPE svg PUBLIC "-//W3C//DTD SVG 1.1//EN" "http://www.w3.org/Graphics/SVG/1.1/DTD/svg11.dtd"><svg t="1706603414570" class="icon" viewBox="0 0 1026 1024" version="1.1" xmlns="http://www.w3.org/2000/svg" p-id="3766" xmlns:xlink="http://www.w3.org/1999/xlink" width="32.0625" height="32"><path d="M1002.407062 939.65313 733.877082 671.121126c122.168949-159.737983 110.228278-389.159405-35.861489-535.250184-159.117518-159.119542-417.101608-159.11853-576.220138 0-159.11853 159.119542-159.11853 417.100596 0 576.220138 159.117518 159.117518 417.101608 159.119542 576.220138 0l0 0L963.991846 978.066321c10.607632 10.60662 27.807584 10.60662 38.415216 0C1013.015706 967.458689 1013.015706 950.260762 1002.407062 939.65313zM160.212695 673.677889c-137.904278-137.903266-137.904278-361.488465 0-499.391731 137.901241-137.901241 361.485429-137.902254 499.390719 0 137.899217 137.901241 137.899217 361.488465 0 499.389707C521.697112 811.579131 298.113937 811.579131 160.212695 673.677889z" fill="#764C46" p-id="3767"></path></svg>