<?xml version="1.0" standalone="no"?><!DOCTYPE svg PUBLIC "-//W3C//DTD SVG 1.1//EN" "http://www.w3.org/Graphics/SVG/1.1/DTD/svg11.dtd"><svg t="1707208805361" class="icon" viewBox="0 0 1231 1024" version="1.1" xmlns="http://www.w3.org/2000/svg" p-id="2310" xmlns:xlink="http://www.w3.org/1999/xlink" width="38.46875" height="32"><path d="M1152.411576 207.434084H987.78135c-19.755627 0-32.926045-13.170418-32.926045-32.926045s13.170418-32.926045 32.926045-32.926045h85.607718L994.366559 55.974277c-13.170418-13.170418-13.170418-32.926045 0-46.096463 13.170418-13.170418 32.926045-13.170418 46.096464 0l131.70418 138.289389c13.170418 13.170418 13.170418 26.340836 13.170418 39.511254-6.585209 13.170418-19.755627 19.755627-32.926045 19.755627z m-302.919615 0h-65.85209c-19.755627 0-32.926045-13.170418-32.926045-32.926045s13.170418-32.926045 32.926045-32.926045h65.85209c19.755627 0 32.926045 13.170418 32.926045 32.926045s-19.755627 32.926045-32.926045 32.926045z m-190.971061 0H32.926045c-19.755627 0-32.926045-13.170418-32.926045-32.926045s13.170418-32.926045 32.926045-32.926045H658.5209c19.755627 0 32.926045 13.170418 32.926045 32.926045s-13.170418 32.926045-32.926045 32.926045zM1152.411576 615.717042H32.926045c-19.755627 0-32.926045-13.170418-32.926045-32.926045s13.170418-32.926045 32.926045-32.926045h1047.048232l-79.022509-85.607717c-13.170418-13.170418-13.170418-32.926045 0-46.096463s32.926045-13.170418 46.096464 0l131.70418 138.289389c6.585209 13.170418 6.585209 26.340836 6.585209 39.511254-6.585209 13.170418-19.755627 19.755627-32.926045 19.755627zM1152.411576 1010.829582H32.926045c-19.755627 0-32.926045-13.170418-32.926045-32.926045s13.170418-32.926045 32.926045-32.926045h1047.048232l-79.022509-85.607717c-13.170418-13.170418-13.170418-32.926045 0-46.096463 13.170418-13.170418 32.926045-13.170418 46.096464 0l131.70418 138.289389c6.585209 6.585209 13.170418 26.340836 6.585209 32.926045-6.585209 19.755627-19.755627 26.340836-32.926045 26.340836z" fill="#FF5966" p-id="2311"></path></svg>