<?xml version="1.0" standalone="no"?><!DOCTYPE svg PUBLIC "-//W3C//DTD SVG 1.1//EN" "http://www.w3.org/Graphics/SVG/1.1/DTD/svg11.dtd"><svg t="1720678921657" class="icon" viewBox="0 0 1024 1024" version="1.1" xmlns="http://www.w3.org/2000/svg" p-id="6577" width="32" height="32" xmlns:xlink="http://www.w3.org/1999/xlink"><path d="M896.3584 512.3584c0-23.9104-2.56-41.3184-2.56-41.3184a46.2848 46.2848 0 0 1 20.992-43.1616l52.224-30.208a29.0816 29.0816 0 0 0 10.6496-39.5776l-99.1232-171.52a29.1328 29.1328 0 0 0-39.6288-10.5984l-52.224 30.1056a46.7456 46.7456 0 0 1-48.0256-3.328s-13.9264-10.8032-34.2016-22.528c-20.3776-11.776-37.4272-18.688-37.4272-18.688a46.7456 46.7456 0 0 1-26.88-39.936V61.2864a29.0816 29.0816 0 0 0-28.9792-29.0304H412.9792a29.0816 29.0816 0 0 0-29.0304 29.0304v60.3136a46.7456 46.7456 0 0 1-26.8288 39.936s-17.0496 6.9632-37.376 18.6368c-20.3264 11.776-34.304 22.5792-34.304 22.5792a46.7456 46.7456 0 0 1-48.0256 3.328l-52.224-30.1568a29.0816 29.0816 0 0 0-39.5776 10.5984L46.4896 358.0928a29.0816 29.0816 0 0 0 10.6496 39.6288l52.224 30.1056c13.824 7.9872 23.2448 27.4432 20.9408 43.2128 0 0-2.56 17.408-2.56 41.3184 0 24.0128 2.56 41.3696 2.56 41.3696a46.2848 46.2848 0 0 1-20.992 43.2128l-52.1728 30.1056a29.0816 29.0816 0 0 0-10.5984 39.5776l99.1232 171.52c7.9872 13.824 25.8048 18.6368 39.6288 10.6496l52.224-30.1056a46.592 46.592 0 0 1 47.9744 3.328s12.8 9.984 32.4096 21.504c20.8384 12.1856 39.2192 19.6608 39.2192 19.6608a46.7456 46.7456 0 0 1 26.8288 39.936v60.3136c0 15.9744 13.056 29.0304 29.0304 29.0304h198.144a29.0816 29.0816 0 0 0 29.0304-29.0304V903.168c0-15.9232 12.0832-33.8944 26.88-39.936 0 0 16.896-6.8608 37.12-18.4832 20.3776-11.776 34.4576-22.7328 34.4576-22.7328a46.6944 46.6944 0 0 1 48.0256-3.2768l52.224 30.1056c13.824 7.9872 31.744 3.2256 39.68-10.5984l99.072-171.52a29.0816 29.0816 0 0 0-10.5984-39.6288l-52.224-30.1056a46.2336 46.2336 0 0 1-20.992-43.2128s2.56-17.3568 2.56-41.3696z m-384.3072 160.0512a160.0512 160.0512 0 1 1 0-320.0512 160.0512 160.0512 0 1 1 0 320z" fill="#e6e6e6" p-id="6578"></path></svg>