<?xml version="1.0" standalone="no"?><!DOCTYPE svg PUBLIC "-//W3C//DTD SVG 1.1//EN" "http://www.w3.org/Graphics/SVG/1.1/DTD/svg11.dtd"><svg t="1720679004077" class="icon" viewBox="0 0 1024 1024" version="1.1" xmlns="http://www.w3.org/2000/svg" p-id="9465" xmlns:xlink="http://www.w3.org/1999/xlink" width="32" height="32"><path d="M0 128.115398C0 57.359217 57.372907 0 128.115398 0L310.741745 0C381.497926 0 438.857143 57.372907 438.857143 128.115398L438.857143 310.741745C438.857143 381.497926 381.484236 438.857143 310.741745 438.857143L128.115398 438.857143C57.359217 438.857143 0 381.484236 0 310.741745L0 128.115398ZM0 713.258253C0 642.502074 57.372907 585.142857 128.115398 585.142857L310.741745 585.142857C381.497926 585.142857 438.857143 642.515763 438.857143 713.258253L438.857143 895.884602C438.857143 966.640781 381.484236 1024 310.741745 1024L128.115398 1024C57.359217 1024 0 966.627091 0 895.884602L0 713.258253ZM585.142857 128.115398C585.142857 57.359217 642.515763 0 713.258253 0L895.884602 0C966.640781 0 1024 57.372907 1024 128.115398L1024 310.741745C1024 381.497926 966.627091 438.857143 895.884602 438.857143L713.258253 438.857143C642.502074 438.857143 585.142857 381.484236 585.142857 310.741745L585.142857 128.115398ZM585.142857 713.258253C585.142857 642.502074 642.515763 585.142857 713.258253 585.142857L895.884602 585.142857C966.640781 585.142857 1024 642.515763 1024 713.258253L1024 895.884602C1024 966.640781 966.627091 1024 895.884602 1024L713.258253 1024C642.502074 1024 585.142857 966.627091 585.142857 895.884602L585.142857 713.258253Z" fill="#e6e6e6" p-id="9466"></path></svg>