<?xml version="1.0" standalone="no"?><!DOCTYPE svg PUBLIC "-//W3C//DTD SVG 1.1//EN" "http://www.w3.org/Graphics/SVG/1.1/DTD/svg11.dtd"><svg t="1707208165578" class="icon" viewBox="0 0 1024 1024" version="1.1" xmlns="http://www.w3.org/2000/svg" p-id="4068" xmlns:xlink="http://www.w3.org/1999/xlink" width="32" height="32"><path d="M269.603 312.67l226.15-140.226c26.205-16.247 60.714-8.342 77.095 17.645a55.165 55.165 0 0 1 8.504 29.42v585.979c0 30.665-25.054 55.512-55.946 55.512a56.335 56.335 0 0 1-29.653-8.43l-226.15-140.243H167.33c-43.263 0-78.33-34.799-78.33-77.717V390.388c0-42.919 35.067-77.717 78.33-77.717h102.273z m27.337 61.033a33.923 33.923 0 0 1-17.826 5.058H166.99c-6.19 0-11.215 4.968-11.215 11.108v244.272c0 6.13 5.025 11.108 11.215 11.108h112.123a33.934 33.934 0 0 1 17.826 5.058L514.575 785V239L296.94 373.703z m493.611 472.942c-13.383 12.778-34.487 12.422-47.44-0.798a33.062 33.062 0 0 1-9.432-23.713 33.051 33.051 0 0 1 10.235-23.37c165.305-158.509 165.305-415.03 0-573.54a33.05 33.05 0 0 1-10.23-23.364 33.054 33.054 0 0 1 9.427-23.708c12.953-13.22 34.057-13.574 47.44-0.797 192.599 184.682 192.599 484.609 0 669.29zM694.723 713.87c-13.527 12.654-34.652 12.087-47.483-1.281a33.125 33.125 0 0 1-9.176-23.824 33.078 33.078 0 0 1 10.478-23.273c90.48-84.981 90.48-221.99 0-306.981a33.08 33.08 0 0 1-10.478-23.279 33.119 33.119 0 0 1 9.176-23.818c12.831-13.37 33.956-13.94 47.483-1.282 118.455 111.276 118.455 292.474 0 403.748v-0.01z" fill="#FF5966" p-id="4069"></path></svg>