<?xml version="1.0" standalone="no"?><!DOCTYPE svg PUBLIC "-//W3C//DTD SVG 1.1//EN" "http://www.w3.org/Graphics/SVG/1.1/DTD/svg11.dtd"><svg t="1707560889359" class="icon" viewBox="0 0 1024 1024" version="1.1" xmlns="http://www.w3.org/2000/svg" p-id="1469" xmlns:xlink="http://www.w3.org/1999/xlink" width="32" height="32"><path d="M515.756 621.32v179.391L441.1 732.859 318.837 621.685a37.46 37.46 0 0 0-25.169-9.714l-113.981 0.036-0.369-239.826h87.299l-74.687-74.687h-12.612c-41.107 0.164-74.341 33.553-74.318 74.651v239.862c0 41.171 33.348 74.651 74.318 74.651h99.929L441.1 833.808l59.382 53.965c14.977 13.596 29.165 17.387 40.332 17.387 8.621 0 15.496-2.26 19.455-4.028 9.113-4.028 30.245-17.241 30.245-52.981V696.08l-74.758-74.76zM846.634 540.729c0 72.792-18.663 125.298-39.116 161.239l52.156 52.161c29.753-45.873 58.512-115.439 58.512-213.436 0-199.056-123.02-281.288-128.283-284.678a35.316 35.316 0 0 0-26.859-4.848 35.397 35.397 0 0 0-22.289 15.747c-10.689 16.749-6.087 38.984 10.384 50.119 3.845 2.605 95.495 66.011 95.495 223.696z" fill="#FF5966" p-id="1470"></path><path d="M647.697 428.133c2.278 1.185 55.865 29.416 55.865 109.935 0 20.759-3.012 38-7.463 52.47l54.616 54.621c13.733-26.828 24.363-61.51 24.363-107.055 0-127.905-92.616-173.577-96.534-175.472v0.036a35.383 35.383 0 0 0-27.128-1.294 35.349 35.349 0 0 0-20.039 18.316c-8.475 17.916-1.267 39.312 16.32 48.443zM417.558 312.002l23.511-21.378 74.687-67.889V410.2l74.76 74.76V175.313c0-24.695-11.35-44.415-30.359-52.853-9.145-4.028-33.275-10.789-59.747 13.304l-59.309 53.91-76.405 69.456 52.862 52.872zM829.266 866.596c-9.55 0-19.1-3.645-26.39-10.935l-634.53-634.53c-14.58-14.58-14.58-38.2 0-52.78 14.58-14.58 38.2-14.58 52.78 0l634.53 634.529c14.58 14.58 14.58 38.2 0 52.78-7.29 7.291-16.84 10.936-26.39 10.936z" fill="#FF5966" p-id="1471"></path></svg>